<?xml version="1.0" encoding="UTF-8" standalone="no"?>
<!-- Creator: CorelDRAW -->

<svg
   xml:space="preserve"
   width="2048px"
   height="2048px"
   style="shape-rendering:geometricPrecision; text-rendering:geometricPrecision; image-rendering:optimizeQuality; fill-rule:evenodd; clip-rule:evenodd"
   viewBox="0 0 2048 2048"
   version="1.1"
   id="svg288"
   sodipodi:docname="about-us-icon.svg"
   inkscape:version="1.2.1 (9c6d41e410, 2022-07-14)"
   xmlns:inkscape="http://www.inkscape.org/namespaces/inkscape"
   xmlns:sodipodi="http://sodipodi.sourceforge.net/DTD/sodipodi-0.dtd"
   xmlns="http://www.w3.org/2000/svg"
   xmlns:svg="http://www.w3.org/2000/svg"><sodipodi:namedview
   id="namedview290"
   pagecolor="#ffffff"
   bordercolor="#000000"
   borderopacity="0.25"
   inkscape:showpageshadow="2"
   inkscape:pageopacity="0.0"
   inkscape:pagecheckerboard="0"
   inkscape:deskcolor="#d1d1d1"
   showgrid="false"
   inkscape:zoom="0.40869141"
   inkscape:cx="779.3166"
   inkscape:cy="1025.2234"
   inkscape:window-width="1920"
   inkscape:window-height="1017"
   inkscape:window-x="-8"
   inkscape:window-y="-8"
   inkscape:window-maximized="1"
   inkscape:current-layer="svg288" />
 <defs
   id="defs274">
  <style
   type="text/css"
   id="style272">
   <![CDATA[
    .fil1 {fill:none}
    .fil0 {fill:#424242}
    .fil2 {fill:#FFFFFE;fill-rule:nonzero}
   ]]>
  </style>
 </defs>
 <rect
   class="fil0"
   width="2048"
   height="2048"
   id="rect276"
   x="0"
   y="0"
   style="display:inline;fill:none;fill-opacity:1"
   inkscape:label="rect276" />
 <g
   id="Layer_x0020_1"
   inkscape:label="Layer 1"
   inkscape:groupmode="layer"
   style="display:inline">
  <metadata
   id="CorelCorpID_0Corel-Layer" />
  <rect
   class="fil1"
   width="2048"
   height="2048"
   id="rect279"
   x="0"
   y="0"
   style="display:inline;fill:none;fill-opacity:1"
   inkscape:label="rect279" />
  <g
   id="_538851000"
   style="display:inline">
   <rect
   id="_538847184"
   class="fil1"
   x="255.996"
   y="255.996"
   width="1536"
   height="1536"
   style="display:inline" />
   <path
   id="_538852752"
   class="fil2"
   d="m 1201.89,910.851 -0.3319,7.6819 c 16.1209,7.22953 26.3858,20.1851 31.8591,35.876 l 0.035,-0.0118 c 3.4937,10.0559 4.6654,20.9032 3.9,31.6736 -0.7122,10.0429 -3.1015,20.25 -6.8315,29.7709 -8.3303,21.2634 -23.7969,39.7229 -43.3394,47.68 -7.1362,19.4728 -15.4973,36.3236 -24.5622,50.8985 -13.5709,21.815 -28.7823,38.5949 -43.9311,51.4689 l -0.01,-0.011 c -14.7992,12.6213 -29.315,21.4016 -42.0874,27.489 -26.6681,12.7146 -49.487,14.5677 -50.0741,14.5677 h -6.0922 c -0.7783,0 -23.47675,-1.9725 -50.36805,-14.8358 -13.0772,-6.254 -27.8008,-15.1465 -42.5221,-27.7323 -13.9347,-11.9386 -27.9614,-27.1477 -40.6429,-46.5319 -10.128,-15.4831 -19.4858,-33.763 -27.3508,-55.3489 -19.5024,-7.9949 -34.9819,-26.5004 -43.3217,-47.7886 -3.72874,-9.5162 -6.12638,-19.72683 -6.84922,-29.77803 -0.77126,-10.6973 0.39448,-21.5032 3.87992,-31.5461 5.43898,-15.6697 15.6579,-28.6004 31.7233,-35.8276 l -0.32126,-7.40316 c -0.53859,-12.2303 -1.05354,-23.9516 -1.05354,-26.765 0,-48.6756 19.7693,-92.7887 51.7052,-124.725 31.9347,-31.9359 76.043,-51.7052 124.72195,-51.7052 h 6.4914 c 48.6733,0 92.7768,19.7705 124.709,51.7063 31.9335,31.9382 51.7028,76.0477 51.7028,124.723 0,2.67992 -0.5079,14.2843 -1.0406,26.4732 z"
   style="display:inline;fill:#7cb342;fill-opacity:1" />
   <path
   id="_538852560"
   class="fil2"
   d="m 1165.43,1224.95 c 61.0158,20.9291 162.158,55.6217 191.506,99.632 l 2.0374,3.5374 c 10.415,22.0618 16.741,48.4193 23.1803,75.2599 5.3126,22.1398 10.715,44.6528 18.7595,63.8268 l 2.1449,10.6169 c 0,23.5087 -9.5185,44.7803 -24.9154,60.176 -15.398,15.3957 -36.6709,24.913 -60.1808,24.913 H 729.79588 c -23.5075,0 -44.7792,-9.5173 -60.1748,-24.9142 -15.3969,-15.3969 -24.9142,-36.6674 -24.9142,-60.1748 0,-13.7244 5.30315,-36.8067 12.4701,-61.376 9.49961,-32.5583 22.6795,-69.2906 30.0579,-87.339 l 0.53622,-1.3949 c 21.9284,-46.5815 137.283,-84.6355 194.433,-103.486 9.19489,-3.033 16.8945,-5.5736 20.5335,-6.8645 l 13.6677,-4.8485 11.7473,8.7095 c 33.6331,24.9331 65.902,36.254 96.9863,35.7177 31.1303,-0.5374 62.3587,-13.0417 93.6757,-35.7331 l 11.6646,-8.452 13.5354,4.8059 c 3.4311,1.2177 12.0095,4.161 21.4146,7.3878 z"
   style="display:inline;fill:#7cb342;fill-opacity:1" />
   <path
   id="_538846080"
   class="fil2"
   d="m 864.001,1152 c -7.31103,-9.6106 -73.2119,-113.499 -77.5725,-124.629 -3.17599,-8.1059 -5.60788,-16.5756 -7.18465,-25.1811 l -2.51103,-0.828 c -9.19489,-3.03302 -16.8945,-5.57358 -20.5335,-6.86452 l -13.6677,-4.84843 -11.7473,8.70946 c -33.6331,24.93309 -65.902,36.25399 -96.9863,35.71769 -31.1303,-0.5374 -62.3587,-13.0417 -93.6757,-35.73309 l -11.6646,-8.45198 -13.5354,4.80591 c -3.43111,1.21772 -12.0095,4.16103 -21.4146,7.38776 -61.0158,20.9291 -162.158,55.6217 -191.506,99.632 l -2.0374,3.5374 c -10.415,22.0618 -16.741,48.4193 -23.1803,75.2599 -5.3126,22.1398 -10.715,44.6528 -18.7595,63.8268 l -2.14488,10.6169 c 0,23.5087 9.51851,44.7803 24.9154,60.176 15.398,15.3957 36.6709,24.913 60.1808,24.913 h 307.948 c 2.76614,-7.5165 5.58662,-14.9953 8.44135,-22.4221 l 0.53622,-1.3948 c 55.3748,-144.046 81.2375,-52.0028 206.1,-164.23 z m -406.957,-464.013 0.33189,7.6819 c -16.1209,7.22953 -26.3858,20.1851 -31.8591,35.876 l -0.0354,-0.0118 c -3.4937,10.0559 -4.66536,20.9032 -3.9,31.6736 0.7122,10.0429 3.10158,20.25 6.8315,29.7709 8.33032,21.2634 23.7969,39.7229 43.3394,47.68 7.13623,19.4728 15.4973,36.3236 24.5622,50.8985 13.5709,21.815 28.7823,38.5949 43.9311,51.4689 l 0.008,-0.0106 c 14.7992,12.6213 29.315,21.4016 42.0874,27.489 26.6681,12.7146 49.487,14.5677 50.0741,14.5677 h 6.09213 c 0.77835,0 23.4768,-1.97244 50.3681,-14.8358 13.0772,-6.25394 27.8008,-15.1465 42.5221,-27.7323 13.9347,-11.9386 27.9614,-27.1477 40.6429,-46.5319 10.128,-15.4831 19.4858,-33.763 27.3508,-55.3489 7.30985,-2.99646 14.0551,-7.47048 20.0705,-13.0134 6.3567,-22.4729 16.4681,-43.7433 29.9705,-62.9434 0.0484,-0.53622 0.0909,-1.07362 0.12993,-1.60984 0.77126,-10.6973 -0.39449,-21.5032 -3.87992,-31.5461 -5.43898,-15.6697 -15.6579,-28.6004 -31.7233,-35.8276 l 0.32126,-7.40316 c 0.53858,-12.2303 1.05354,-23.9516 1.05354,-26.765 0,-48.6756 -19.7693,-92.7887 -51.7052,-124.725 -31.9347,-31.9359 -76.043,-51.7052 -124.722,-51.7052 h -6.49134 c -48.6733,0 -92.7768,19.7705 -124.709,51.7063 -31.9335,31.9382 -51.7028,76.0477 -51.7028,124.723 0,2.67992 0.50787,14.2843 1.04055,26.4732 z"
   style="display:inline;fill:#7cb342;fill-opacity:1" />
   <path
   id="_538845480"
   class="fil2"
   d="m 1183.88,1152 c 7.311,-9.6106 73.2119,-113.499 77.5725,-124.629 3.176,-8.1059 5.6079,-16.5756 7.1847,-25.1811 l 2.511,-0.828 c 9.1949,-3.03302 16.8945,-5.57358 20.5335,-6.86452 l 13.6677,-4.84843 11.7473,8.70946 c 33.6331,24.93309 65.902,36.25399 96.9863,35.71769 31.1303,-0.5374 62.3587,-13.0417 93.6757,-35.73309 l 11.6646,-8.45198 13.5354,4.80591 c 3.4311,1.21772 12.0095,4.16103 21.4146,7.38776 61.0158,20.9291 162.158,55.6217 191.506,99.632 l 2.0374,3.5374 c 10.415,22.0618 16.741,48.4193 23.1803,75.2599 5.3126,22.1398 10.715,44.6528 18.7595,63.8268 l 2.1449,10.6169 c 0,23.5087 -9.5186,44.7803 -24.9154,60.176 -15.398,15.3957 -36.6709,24.913 -60.1808,24.913 h -307.948 c -2.7662,-7.5165 -5.5867,-14.9953 -8.4414,-22.4221 l -0.5362,-1.3948 c -55.3748,-144.046 -81.2375,-52.0028 -206.1,-164.23 z m 406.957,-464.013 -0.3319,7.6819 c 16.1209,7.22953 26.3858,20.1851 31.8591,35.876 l 0.035,-0.0118 c 3.4937,10.0559 4.6654,20.9032 3.9,31.6736 -0.7122,10.0429 -3.1015,20.25 -6.8315,29.7709 -8.3303,21.2634 -23.7969,39.7229 -43.3394,47.68 -7.1362,19.4728 -15.4973,36.3236 -24.5622,50.8985 -13.5709,21.815 -28.7823,38.5949 -43.9311,51.4689 l -0.01,-0.0106 c -14.7992,12.6213 -29.315,21.4016 -42.0874,27.489 -26.6681,12.7146 -49.487,14.5677 -50.0741,14.5677 h -6.0922 c -0.7783,0 -23.4768,-1.97244 -50.3681,-14.8358 -13.0772,-6.25394 -27.8008,-15.1465 -42.5221,-27.7323 -13.9347,-11.9386 -27.9614,-27.1477 -40.6429,-46.5319 -10.128,-15.4831 -19.4858,-33.763 -27.3508,-55.3489 -7.3098,-2.99646 -14.0551,-7.47048 -20.0705,-13.0134 -6.3567,-22.4729 -16.4681,-43.7433 -29.9705,-62.9434 -0.048,-0.53622 -0.091,-1.07362 -0.1299,-1.60984 -0.7712,-10.6973 0.3945,-21.5032 3.8799,-31.5461 5.439,-15.6697 15.6579,-28.6004 31.7233,-35.8276 l -0.3212,-7.40316 c -0.5386,-12.2303 -1.0536,-23.9516 -1.0536,-26.765 0,-48.6756 19.7693,-92.7887 51.7052,-124.725 31.9347,-31.9359 76.043,-51.7052 124.722,-51.7052 h 6.4914 c 48.6733,0 92.7768,19.7705 124.709,51.7063 31.9335,31.9382 51.7028,76.0477 51.7028,124.723 0,2.67992 -0.5079,14.2843 -1.0406,26.4732 z"
   style="display:inline;fill:#7cb342;fill-opacity:1" />
  </g>
 </g>
</svg>
