<?xml version="1.0" encoding="UTF-8" standalone="no"?>
<!-- Creator: CorelDRAW -->

<svg
   xml:space="preserve"
   width="2048px"
   height="2048px"
   style="shape-rendering:geometricPrecision; text-rendering:geometricPrecision; image-rendering:optimizeQuality; fill-rule:evenodd; clip-rule:evenodd"
   viewBox="0 0 2048 2048"
   version="1.1"
   id="svg15"
   sodipodi:docname="contact-us-icon.svg"
   inkscape:version="1.2.1 (9c6d41e410, 2022-07-14)"
   xmlns:inkscape="http://www.inkscape.org/namespaces/inkscape"
   xmlns:sodipodi="http://sodipodi.sourceforge.net/DTD/sodipodi-0.dtd"
   xmlns="http://www.w3.org/2000/svg"
   xmlns:svg="http://www.w3.org/2000/svg"><sodipodi:namedview
   id="namedview17"
   pagecolor="#ffffff"
   bordercolor="#000000"
   borderopacity="0.25"
   inkscape:showpageshadow="2"
   inkscape:pageopacity="0.0"
   inkscape:pagecheckerboard="0"
   inkscape:deskcolor="#d1d1d1"
   showgrid="false"
   inkscape:zoom="0.40869141"
   inkscape:cx="1019.1063"
   inkscape:cy="1025.2234"
   inkscape:window-width="1920"
   inkscape:window-height="1017"
   inkscape:window-x="-8"
   inkscape:window-y="-8"
   inkscape:window-maximized="1"
   inkscape:current-layer="Layer_x0020_1" />
 <defs
   id="defs4">
  <style
   type="text/css"
   id="style2">
   <![CDATA[
    .fil1 {fill:none}
    .fil2 {fill:#558B2F}
    .fil0 {fill:#7CB342}
   ]]>
  </style>
 </defs>
 <g
   id="Layer_x0020_1"
   inkscape:label="Layer 1">
  <metadata
   id="CorelCorpID_0Corel-Layer" />
  <rect
   class="fil0"
   x="255.999"
   y="577.13"
   width="1536"
   height="894.871"
   id="rect7" />
  <g
   id="_392035160">
   <rect
   id="_392037680"
   class="fil1"
   width="2048"
   height="2048" />
   <rect
   id="_392033816"
   class="fil1"
   x="255.999"
   y="255.999"
   width="1536"
   height="1536" />
  </g>
  <path
   class="fil2"
   d="M315.744 575.999l1412.53 0 -706.267 407.763 -706.267 -407.763zm1476.26 36.7902l0 817.15 -569.172 -488.539 569.172 -328.611zm0 859.21l0 0.0011811 -0.0011811 0 0.0011811 -0.0011811zm-49.0016 0.0011811l-1438 0 577.164 -495.398 123.971 71.5749 15.8764 9.16536 15.874 -9.16536 126.349 -72.9473 578.764 496.771zm-1487 0l-0.0011811 0 0 -0.0011811 0.0011811 0.0011811zm-0.0011811 -42.0614l0 -814.853 567.572 327.688 -567.572 487.165z"
   id="path12"
   style="fill:#ffffff" />
 </g>
</svg>
